<?xml version="1.0" standalone="no"?><!DOCTYPE svg PUBLIC "-//W3C//DTD SVG 1.1//EN" "http://www.w3.org/Graphics/SVG/1.1/DTD/svg11.dtd"><svg t="1619512715303" class="icon" viewBox="0 0 1046 1024" version="1.1" xmlns="http://www.w3.org/2000/svg" p-id="2833" xmlns:xlink="http://www.w3.org/1999/xlink" width="204.296875" height="200"><defs><style type="text/css"></style></defs><path d="M295.961761 512.782491l-109.481057 189.546264h0.025761l56.616252 0.00966h211.494641-0.01932v236.29605l-193.355673-0.032201a2.698465 2.698465 0 0 1-0.708428 0.032201h-11.25434c-0.112704 0-0.177107-0.00966-0.28015 0-38.767094-1.973937-75.753459-22.972377-96.626315-59.063547l-28.137459-48.726943-6.005535-10.394566L15.843019 643.239447c-9.98239-17.388679-15.810818-37.543447-15.810818-59.063548 0-21.532981 5.828428-41.707069 15.810818-59.076427l75.373484-130.492378-73.699019-42.537861 98.265359 0.01288 204.735597 118.149635 49.13912 85.085384L295.961761 512.782491z m344.295849 189.568805l218.936352-0.019321-28.259824-49.010315-11.763119-20.380176-93.992252-162.667874 204.751698-118.152855 96.668177 167.395019c0.083723 0.167447 0.26083 0.363874 0.344553 0.586062l5.615899 9.750541c0.103044 0.086943 0.125585 0.148126 0.167447 0.222189 17.66239 34.542289 17.997283 77.083371-2.865912 113.187421l-0.682667 1.181787c0.235069-0.392855 0.466918-0.785711 0.695547-1.181787l-33.875723 58.61595-0.560302 0.969258-102.084427 176.743044a117.856604 117.856604 0 0 1-43.281711 43.239849 117.631195 117.631195 0 0 1-59.086088 15.833359v-0.009661H640.25761v85.095044l-117.341384-203.238239 68.224805-118.152855v236.29605h49.116579zM632.403723 309.550692l-109.493937-189.478642-28.327446 49.010315-11.76312 20.360855-93.969711 162.667874-204.751698-118.152855L280.82717 66.608302c0.083723-0.209308 0.180327-0.431497 0.305912-0.627925l5.63522-9.73122c0.022541-0.093384 0.083723-0.144906 0.128805-0.25117C307.985711 23.442516 344.688704 1.886994 386.389333 1.909535h2.324931a121.060629 121.060629 0 0 0-2.31205-0.022541h272.966843a117.824403 117.824403 0 0 1 59.124729 15.833358 117.685937 117.685937 0 0 1 43.26239 43.243069l75.367044 130.466617 73.73122-42.541082-117.405786 203.212478H558.659623l73.750541-42.550742z" p-id="2834" fill="#3275DB"></path></svg>