<?xml version="1.0" standalone="no"?><!DOCTYPE svg PUBLIC "-//W3C//DTD SVG 1.1//EN" "http://www.w3.org/Graphics/SVG/1.1/DTD/svg11.dtd"><svg t="1619512792481" class="icon" viewBox="0 0 1024 1024" version="1.1" xmlns="http://www.w3.org/2000/svg" p-id="5119" xmlns:xlink="http://www.w3.org/1999/xlink" width="200" height="200"><defs><style type="text/css"></style></defs><path d="M572.701715 1022.420007c1.906991 1.403993 58.933723-55.747738 63.599701-64.177698-0.501998-0.601997-1.329994-2.282989-1.604992-1.755992L481.078145 802.041043c-10.034953-9.834954-45.861785-44.055793-49.449767-55.194741l152.564283-154.095276c13.196938-12.84494 43.704795-40.44281 51.983756-54.190746-4.841977-8.705959-57.954728-59.56072-65.832691-62.922704-8.47996-0.149999-198.978065 198.878066-205.175036 200.283059-13.396937 3.059986-82.591612-73.535655-98.673537-88.312585-25.790879-23.733889-16.95992-27.396871-16.583922-95.687551 0.200999-37.231825-0.676997-33.041845-16.883921-57.40273-47.166778-70.850667-39.088816-46.389782-44.281792-104.193511-1.981991-22.002897-4.389979-47.392777-4.06398-71.929662 37.155825 2.257989 64.226698 20.748903 96.916544 31.009855 112.196473 35.249834 238.34288 34.09584 346.223374 5.142975 90.319576-24.234886 190.172107-78.878629 250.008826-141.675334 10.988948-11.539946 52.685753-54.492744 60.212717-71.301665-19.267909-23.884888-112.146473-57.50273-141.575335-64.578697C675.816231-12.035133 492.067094-5.763163 374.752645 50.611572c-27.59787 13.220938-68.943676 34.11984-90.043577 50.000765-24.686884 18.539913-66.534687 61.141713-77.372637 60.463716-33.819841-2.20799-34.572838-68.717677-65.90769-72.20466-18.916911 14.550932-11.917944 74.287651-11.917944 98.397537v115.03146c0 90.319576-5.945972 68.08968 29.880859 137.410355 10.68795 20.672903 13.095938 18.439913 12.81994 47.065778-16.683922-2.809987-6.798968-5.769973-21.475899-10.912948-8.403961 4.414979-59.007723 52.159755-64.452697 62.721705 5.795973 11.314947 29.604861 32.464848 38.912817 41.069807 10.762949 10.035953 33.217844 31.385853 40.36781 42.851799-1.931991 13.923935-35.123835 83.971606-43.503795 101.809522-32.614847 69.545673-30.607856 56.248736-31.460853 116.360453l10.436951-10.034953c15.052929-18.389914 43.528796-70.599668 66.03269-71.552664 10.411951 23.809888 8.003962 58.104727 17.862916 83.745607 18.039915-10.862949 36.955826-28.600866 36.930827-52.309754 0-24.285886-4.063981-72.38066 3.336984-90.669574 18.239914-6.924967 27.045873 7.675964 36.32783 16.98392 9.684955 9.734954 24.411885 19.543908 29.102863 33.041845-8.52996 13.196938-37.983822 39.062817-51.004761 51.532758-8.103962 7.751964-13.321937 15.202929-24.034887 25.664879L85.857002 958.168309c4.489979 8.955958 55.194741 58.957723 64.879695 65.756691 27.822869-12.092943 190.472105-199.505063 210.042013-201.161055 5.769973 25.715879-5.293975 37.055826 8.60496 59.68572 7.526965 12.293942 16.683922 31.93785 26.944873 40.894808l13.020939-8.50496-4.489979-49.299769c18.966911 4.490979 154.846273 147.245308 167.842212 156.879263z" fill="#FF4F4F" p-id="5120"></path></svg>