<?xml version="1.0" standalone="no"?><!DOCTYPE svg PUBLIC "-//W3C//DTD SVG 1.1//EN" "http://www.w3.org/Graphics/SVG/1.1/DTD/svg11.dtd"><svg t="1620388703143" class="icon" viewBox="0 0 1024 1024" version="1.1" xmlns="http://www.w3.org/2000/svg" p-id="2988" xmlns:xlink="http://www.w3.org/1999/xlink" width="200" height="200"><defs><style type="text/css"></style></defs><path d="M590.272 512.128l412.8-402.752a51.84 51.84 0 0 0 0-74.176l-2.24-2.176a55.04 55.04 0 0 0-76.032 0L512 436.352 99.2 33.024a55.04 55.04 0 0 0-76.032 0L20.864 35.2a50.88 50.88 0 0 0 0 74.24l412.8 402.688-412.8 402.752a51.84 51.84 0 0 0 0 74.24l2.304 2.176a55.04 55.04 0 0 0 76.032 0L512 588.544l412.8 402.752a55.04 55.04 0 0 0 76.032 0l2.304-2.24a51.84 51.84 0 0 0 0-74.176l-412.8-402.752z" p-id="2989" fill="#8a8a8a"></path></svg>