<?xml version="1.0" standalone="no"?><!DOCTYPE svg PUBLIC "-//W3C//DTD SVG 1.1//EN" "http://www.w3.org/Graphics/SVG/1.1/DTD/svg11.dtd"><svg t="1619599256272" class="icon" viewBox="0 0 1024 1024" version="1.1" xmlns="http://www.w3.org/2000/svg" p-id="3136" xmlns:xlink="http://www.w3.org/1999/xlink" width="200" height="200"><defs><style type="text/css"></style></defs><path d="M43.885714 921.6a485.668571 102.4 0 1 0 971.337143 0 485.668571 102.4 0 1 0-971.337143 0Z" fill="#32C5FF" opacity=".2" p-id="3137"></path><path d="M533.942857 453.485714L204.8 539.794286V731.428571l329.142857-86.308571L863.085714 731.428571V539.794286z" fill="#7DC9E6" p-id="3138"></path><path d="M716.8 643.657143c0 16.091429-13.165714 29.257143-29.257143 29.257143s-29.257143-13.165714-29.257143-29.257143 13.165714-29.257143 29.257143-29.257143 29.257143 13.165714 29.257143 29.257143M725.577143 453.485714c8.777143 0 16.091429-7.314286 16.091428-16.091428 0-8.777143-7.314286-16.091429-16.091428-16.091429-8.777143 0-16.091429 7.314286-16.091429 16.091429 1.462857 8.777143 7.314286 16.091429 16.091429 16.091428M702.171429 394.971429c32.182857 0 58.514286 26.331429 58.514285 58.514285s-26.331429 58.514286-58.514285 58.514286-58.514286-26.331429-58.514286-58.514286 26.331429-58.514286 58.514286-58.514285M672.914286 373.028571c0-11.702857-10.24-21.942857-21.942857-21.942857s-21.942857 10.24-21.942858 21.942857 10.24 21.942857 21.942858 21.942858 21.942857-10.24 21.942857-21.942858" fill="#2EB3D0" p-id="3139"></path><path d="M541.257143 434.468571h-10.24c27.794286-20.48 51.2-48.274286 67.291428-83.382857 49.737143-108.251429 2.925714-236.982857-103.862857-288.182857s-234.057143-2.925714-283.794285 105.325714c-30.72 68.754286-27.794286 162.377143 21.942857 222.354286 27.794286 33.645714 65.828571 58.514286 109.714285 58.514286 65.828571 0 118.491429-49.737143 118.491429-115.565714s-52.662857-119.954286-118.491429-119.954286c-13.165714 0-24.868571 1.462857-36.571428 5.851428 19.017143-10.24 40.96-16.091429 64.365714-16.091428 78.994286 0 143.36 65.828571 143.36 146.285714 0 10.24-1.462857 21.942857-2.925714 32.182857-2.925714 14.628571-8.777143 29.257143-16.091429 42.422857-7.314286 11.702857-13.165714 20.48-23.405714 30.72-7.314286 8.777143-13.165714 13.165714-19.017143 20.48-17.554286 20.48-27.794286 48.274286-27.794286 77.531429 0 65.828571 52.662857 119.954286 117.028572 119.954286s117.028571-54.125714 117.028571-119.954286c0-65.828571-52.662857-118.491429-117.028571-118.491429" fill="#2EB3D0" p-id="3140"></path><path d="M526.628571 980.114286l-315.977142-81.92c-11.702857-2.925714-20.48-14.628571-20.48-26.331429L204.8 541.257143l321.828571 87.771428v351.085715z" fill="#51C2DA" p-id="3141"></path><path d="M443.245714 804.571429L166.765714 731.428571c-14.628571-4.388571-23.405714-19.017143-19.017143-33.645714L197.485714 541.257143 526.628571 629.028571l-51.2 157.988572c-4.388571 13.165714-19.017143 20.48-32.182857 17.554286" fill="#B4F8FF" p-id="3142"></path><path d="M526.628571 980.114286l315.977143-81.92c11.702857-2.925714 20.48-14.628571 20.48-26.331429V541.257143l-336.457143 87.771428v351.085715z" fill="#41BCD6" p-id="3143"></path><path d="M607.085714 804.571429l279.405715-73.142858c14.628571-4.388571 23.405714-19.017143 19.017142-33.645714L858.697143 541.257143 526.628571 629.028571l46.811429 156.525715c4.388571 14.628571 19.017143 21.942857 33.645714 19.017143" fill="#B4F8FF" p-id="3144"></path><path d="M751.908571 228.205714h-24.868571c-5.851429 0-10.24-2.925714-10.24-8.777143 0-5.851429 4.388571-8.777143 10.24-8.777142h24.868571v-24.868572c0-5.851429 4.388571-10.24 10.24-10.24 5.851429 0 10.24 4.388571 10.24 10.24v24.868572h21.942858c5.851429 0 10.24 2.925714 10.24 8.777142 0 5.851429-4.388571 8.777143-10.24 8.777143h-21.942858v21.942857c0 5.851429-4.388571 10.24-10.24 10.24-5.851429 0-10.24-4.388571-10.24-10.24v-21.942857z" fill="#6DD400" p-id="3145"></path><path d="M952.32 383.268571l-13.165714-13.165714c-4.388571-4.388571-4.388571-10.24 0-14.628571 4.388571-4.388571 11.702857-4.388571 16.091428 0l13.165715 13.165714 13.165714-13.165714c4.388571-4.388571 11.702857-4.388571 16.091428 0 4.388571 4.388571 4.388571 10.24 0 14.628571l-13.165714 13.165714 13.165714 13.165715c4.388571 4.388571 4.388571 10.24 0 14.628571-2.925714 1.462857-4.388571 2.925714-7.314285 2.925714s-5.851429-1.462857-7.314286-2.925714l-13.165714-13.165714-13.165715 13.165714c-1.462857 1.462857-4.388571 2.925714-7.314285 2.925714s-5.851429-1.462857-7.314286-2.925714c-4.388571-4.388571-4.388571-10.24 0-14.628571l10.24-13.165715zM26.331429 223.817143L1.462857 200.411429c-1.462857-2.925714-1.462857-5.851429 0-7.314286 2.925714-2.925714 5.851429-2.925714 7.314286 0l24.868571 24.868571c1.462857 1.462857 1.462857 5.851429 0 7.314286-1.462857 1.462857-4.388571 1.462857-7.314285-1.462857z" fill="#F7B500" p-id="3146"></path><path d="M33.645714 200.411429L8.777143 223.817143c-1.462857 1.462857-5.851429 1.462857-7.314286 0-1.462857-1.462857-1.462857-4.388571 0-7.314286l24.868572-24.868571c2.925714-1.462857 5.851429-1.462857 7.314285 1.462857 2.925714 1.462857 2.925714 4.388571 0 7.314286z" fill="#F7B500" p-id="3147"></path><path d="M848.457143 39.497143V4.388571c0-1.462857 2.925714-4.388571 7.314286-4.388571s7.314286 2.925714 7.314285 4.388571v33.645715c0 2.925714-2.925714 5.851429-7.314285 5.851428s-7.314286-2.925714-7.314286-4.388571z" fill="#FA6400" p-id="3148"></path><path d="M873.325714 29.257143h-33.645714c-2.925714 0-5.851429-2.925714-5.851429-7.314286s2.925714-7.314286 4.388572-7.314286h33.645714c2.925714 0 5.851429 2.925714 5.851429 7.314286s-2.925714 7.314286-4.388572 7.314286z" fill="#FA6400" p-id="3149"></path><path d="M95.085714 525.165714c-20.48 0-36.571429-16.091429-36.571428-35.108571C58.514286 469.577143 74.605714 453.485714 95.085714 453.485714S131.657143 469.577143 131.657143 488.594286c0 20.48-16.091429 36.571429-36.571429 36.571428z m0-51.2c-8.777143 0-14.628571 5.851429-14.628571 14.628572s5.851429 14.628571 14.628571 14.628571 14.628571-5.851429 14.628572-14.628571-5.851429-14.628571-14.628572-14.628572z" fill="#F7B500" p-id="3150"></path></svg>