<?xml version="1.0" standalone="no"?><!DOCTYPE svg PUBLIC "-//W3C//DTD SVG 1.1//EN" "http://www.w3.org/Graphics/SVG/1.1/DTD/svg11.dtd"><svg t="1619425101116" class="icon" viewBox="0 0 1024 1024" version="1.1" xmlns="http://www.w3.org/2000/svg" p-id="2257" xmlns:xlink="http://www.w3.org/1999/xlink" width="200" height="200"><defs><style type="text/css"></style></defs><path d="M917.6084375 871.285625l-240.525-240.534375c105.4415625-128.671875 98.1065625-318.860625-22.018125-438.975-127.9228125-127.9228125-335.3540625-127.9228125-463.27875 0.0103125-127.9434375 127.92375-127.9434375 335.3559375-0.020625 463.2796875 120.1265625 120.11625 310.318125 127.4484375 438.99 22.0125l240.5296875 240.5296875c12.7959375 12.7959375 33.526875 12.7959375 46.3228125 0 12.7978125-12.7959375 12.7978125-33.526875 0-46.3228125z m-679.51875-262.5534375c-102.33-102.34125-102.33-268.2703125 0-370.6321875 102.373125-102.33 268.30125-102.33 370.63125 0 102.3721875 102.361875 102.3721875 268.2909375 0.0215625 370.6425-102.3515625 102.350625-268.280625 102.339375-370.6528125-0.0103125z" fill="#80BF00" p-id="2258"></path></svg>